<?xml version="1.0" encoding="UTF-8" standalone="no"?>
<!-- Created with Inkscape (http://www.inkscape.org/) -->

<svg
   width="210mm"
   height="297mm"
   viewBox="0 0 210 297"
   version="1.1"
   id="svg1"
   inkscape:version="1.4.3 (0d15f75, 2025-12-25)"
   sodipodi:docname="maua_branco.svg"
   xmlns:inkscape="http://www.inkscape.org/namespaces/inkscape"
   xmlns:sodipodi="http://sodipodi.sourceforge.net/DTD/sodipodi-0.dtd"
   xmlns="http://www.w3.org/2000/svg"
   xmlns:svg="http://www.w3.org/2000/svg">
  <sodipodi:namedview
     id="namedview1"
     pagecolor="#505050"
     bordercolor="#ffffff"
     borderopacity="1"
     inkscape:showpageshadow="0"
     inkscape:pageopacity="0"
     inkscape:pagecheckerboard="1"
     inkscape:deskcolor="#505050"
     inkscape:document-units="mm"
     showguides="false"
     inkscape:zoom="0.78840488"
     inkscape:cx="397.00414"
     inkscape:cy="561.25984"
     inkscape:window-width="1920"
     inkscape:window-height="1166"
     inkscape:window-x="-11"
     inkscape:window-y="-11"
     inkscape:window-maximized="1"
     inkscape:current-layer="layer1" />
  <defs
     id="defs1">
    <clipPath
       id="clip0_2025_1225">
      <rect
         x="0"
         y="0"
         width="117"
         height="54"
         fill="#FFFFFF"
         id="rect1" />
    </clipPath>
  </defs>
  <g
     inkscape:label="Camada 1"
     inkscape:groupmode="layer"
     id="layer1">
    <g
       clip-path="url(#clip0_2025_1225)"
       id="g35"
       transform="matrix(0.93003313,0,0,1.010346,49.217337,117.72695)">
      <path
         d="m 115.416,1.52405 h -0.888 -0.944 l -1.367,4.94794 h 1.264 l 0.217,-0.85984 h 0.83 0.8 l 0.243,0.85984 h 1.233 z m -0.888,3.13043 h -0.572 l 0.547,-2.14702 h 0.025 l 0.558,2.14702 z"
         fill="#ffffff"
         fill-rule="evenodd"
         clip-rule="evenodd"
         id="path1" />
      <path
         d="m 109.663,3.06345 c 0,-1.57036 -0.847,-1.58066 -2.018,-1.58066 -1.331,0 -2.157,0.24714 -2.157,1.88959 v 1.27688 c 0,1.60641 0.728,1.86385 2.157,1.86385 1.631,0 2.018,-0.30378 2.018,-1.96682 V 3.671 h -2.064 v 0.91648 h 0.83 c 0,0.68993 -0.159,0.83409 -0.784,0.83409 -0.629,0 -0.903,-0.09267 -0.903,-0.96281 V 3.65041 c 0.011,-0.79291 0.036,-1.08639 0.903,-1.08639 0.367,0 0.764,-0.01029 0.784,0.49943 z"
         fill="#ffffff"
         fill-rule="evenodd"
         clip-rule="evenodd"
         id="path2" />
      <path
         d="m 111.69,1.52405 h -1.207 v 4.94794 h 1.207 z"
         fill="#ffffff"
         id="path3" />
      <path
         d="m 102.774,1.48279 c -1.233,0 -2.1,0.29348 -2.1,1.8175 v 1.40046 c 0,1.51373 0.867,1.80721 2.1,1.80721 1.233,0 2.1,-0.29348 2.1,-1.80721 V 3.30029 c 0,-1.52402 -0.867,-1.8175 -2.1,-1.8175 z m 0.857,3.0738 c 0,0.73627 -0.227,0.8135 -0.857,0.8135 -0.629,0 -0.831,-0.07723 -0.856,-0.8135 V 3.43416 c 0.02,-0.73627 0.227,-0.8032 0.856,-0.8032 0.625,0 0.857,0.06693 0.857,0.8032 z"
         fill="#ffffff"
         fill-rule="evenodd"
         clip-rule="evenodd"
         id="path4" />
      <path
         d="m 98.2697,1.52405 h -1.2074 v 4.95309 h 3.1007 V 5.32382 h -1.8933 z"
         fill="#ffffff"
         fill-rule="evenodd"
         clip-rule="evenodd"
         id="path5" />
      <path
         d="m 94.1882,1.48279 c -1.2333,0 -2.1104,0.29348 -2.1104,1.8175 v 1.40046 c 0,1.51373 0.8771,1.80721 2.1104,1.80721 1.2332,0 2.1001,-0.29348 2.1001,-1.80721 V 3.30029 c 0,-1.52402 -0.8669,-1.8175 -2.1001,-1.8175 z m 0.8565,3.0738 c 0,0.73627 -0.227,0.8135 -0.8565,0.8135 -0.6295,0 -0.8308,-0.07723 -0.8566,-0.8135 V 3.43416 c 0.0207,-0.73627 0.2271,-0.8032 0.8566,-0.8032 0.6295,0 0.8565,0.06693 0.8565,0.8032 z"
         fill="#ffffff"
         fill-rule="evenodd"
         clip-rule="evenodd"
         id="path6" />
      <path
         d="m 68.1618,2.60013 h 2.064 V 1.52405 h -3.2817 v 4.95309 h 3.3281 V 5.39075 H 68.1618 V 4.42794 h 1.9401 V 3.50116 h -1.9401 z"
         fill="#ffffff"
         fill-rule="evenodd"
         clip-rule="evenodd"
         id="path7" />
      <path
         d="m 75.9945,2.66707 h 1.2229 V 1.52405 h -3.5912 v 1.14302 h 1.1609 v 3.81007 h 1.2074 z"
         fill="#ffffff"
         fill-rule="evenodd"
         clip-rule="evenodd"
         id="path8" />
      <path
         d="m 79.0389,2.60013 h 2.064 V 1.52405 h -3.2817 v 4.95309 h 3.3281 V 5.39075 H 79.0389 V 4.42794 H 80.979 V 3.50116 h -1.9401 z"
         fill="#ffffff"
         fill-rule="evenodd"
         clip-rule="evenodd"
         id="path9" />
      <path
         d="m 84.7302,4.59778 v 0.14931 c 0,0.57666 -0.2528,0.623 -0.7533,0.623 -0.7172,0 -0.7534,-0.29348 -0.7534,-1.02975 V 3.57318 c 0,-0.71053 0.0671,-0.93707 0.7534,-0.93707 0.4231,0 0.6966,0.03604 0.743,0.47368 v 0.1905 h 1.2539 v -0.1905 c -0.0258,-1.49313 -0.6038,-1.627 -1.8576,-1.627 -1.3312,0 -2.1413,0.23684 -2.1413,1.87414 v 1.27689 c 0,1.80721 0.9133,1.87414 2.1413,1.87414 0.5263,0 1.0268,0.0103 1.4499,-0.36041 0.4128,-0.37071 0.4128,-0.85984 0.4128,-1.40046 V 4.59778 Z"
         fill="#ffffff"
         fill-rule="evenodd"
         clip-rule="evenodd"
         id="path10" />
      <path
         d="m 87.8983,2.66707 h 0.0464 l 1.2848,3.81007 h 2.064 V 1.52405 h -1.2074 l 0.0671,3.79977 H 90.1067 L 88.8116,1.52405 h -2.0537 v 4.95309 h 1.2178 z"
         fill="#ffffff"
         fill-rule="evenodd"
         clip-rule="evenodd"
         id="path11" />
      <path
         d="m 64.2662,1.52405 h -0.2529 -2.0536 v 4.94794 h 2.0536 0.4128 c 1.2642,0 1.6667,-0.64359 1.6667,-2.00286 V 3.44968 C 66.0876,2.03377 65.5303,1.52405 64.2662,1.52405 Z m 0.5779,2.95023 c 0,0.52002 -0.16,0.84954 -0.614,0.84954 H 64.0133 63.1671 V 2.66707 h 0.8462 0.2168 c 0.4334,0 0.614,0.13387 0.614,0.77746 z"
         fill="#ffffff"
         fill-rule="evenodd"
         clip-rule="evenodd"
         id="path12" />
      <path
         d="M 56.9546,0 56.5109,0.293478 55.7266,0.792906 55.8968,1.19966 56.5109,0.993707 57.2642,0.73627 Z"
         fill="#ffffff"
         fill-rule="evenodd"
         clip-rule="evenodd"
         id="path13" />
      <path
         d="m 57.3984,1.52405 h -0.8875 -0.9443 l -1.3673,4.94794 h 1.2641 l 0.2168,-0.85984 h 0.8307 0.7998 l 0.2373,0.85984 h 1.2332 z m -0.8875,3.13043 h -0.5727 l 0.5572,-2.14702 h 0.0103 l 0.5573,2.14702 z"
         fill="#ffffff"
         fill-rule="evenodd"
         clip-rule="evenodd"
         id="path14" />
      <path
         d="m 52.4655,1.52405 v 3.21281 c 0,0.57666 -0.1703,0.6333 -0.6863,0.6333 -0.5108,0 -0.8101,-0.0103 -0.8101,-0.57666 V 1.52405 h -1.2074 v 3.30034 c 0,1.18421 0.1961,1.68364 2.0175,1.68364 1.321,0 1.8937,-0.37071 1.8937,-1.68364 V 1.52405 Z"
         fill="#ffffff"
         fill-rule="evenodd"
         clip-rule="evenodd"
         id="path15" />
      <path
         d="m 47.8578,1.52405 h -0.903 -0.9442 l -1.3674,4.94794 h 1.2642 l 0.227,-0.85984 h 0.8204 0.8101 l 0.227,0.85984 h 1.2436 z M 46.96,4.65448 H 46.4027 L 46.9496,2.50746 H 46.96 l 0.5572,2.14702 z"
         fill="#ffffff"
         fill-rule="evenodd"
         clip-rule="evenodd"
         id="path16" />
      <path
         d="m 39.6071,2.67737 h 0.0413 l 1.1661,3.79977 h 1.0475 l 1.1506,-3.79977 h 0.0362 l -0.1136,3.79977 h 1.2075 V 1.52405 H 42.1716 L 41.3512,4.63389 H 41.3047 L 40.4379,1.52405 h -1.9143 v 4.95309 h 1.2074 z"
         fill="#ffffff"
         fill-rule="evenodd"
         clip-rule="evenodd"
         id="path17" />
      <path
         d="M 1.41383,1.52405 H 0.206421 V 6.47199 H 1.41383 Z"
         fill="#ffffff"
         id="path18" />
      <path
         d="m 32.8993,1.48279 c -1.2332,0 -2.1,0.29348 -2.1,1.8175 v 1.40046 c 0,1.51373 0.8668,1.80721 2.1,1.80721 1.2332,0 2.0949,-0.29348 2.0949,-1.80721 V 3.30029 c 0.0052,-1.52402 -0.8617,-1.8175 -2.0949,-1.8175 z m 0.8566,3.0738 c 0,0.73627 -0.2271,0.8135 -0.8566,0.8135 -0.6295,0 -0.8307,-0.07723 -0.8565,-0.8135 V 3.43416 c 0.0206,-0.73627 0.227,-0.8032 0.8565,-0.8032 0.6244,0 0.8566,0.06693 0.8566,0.8032 z"
         fill="#ffffff"
         fill-rule="evenodd"
         clip-rule="evenodd"
         id="path19" />
      <path
         d="M 3.51387,2.66707 H 3.57062 L 4.84511,6.47714 H 6.91938 V 1.52405 H 5.70165 l 0.0774,3.79977 H 5.72229 L 4.422,1.52405 H 2.37354 v 4.95309 h 1.21772 z"
         fill="#ffffff"
         fill-rule="evenodd"
         clip-rule="evenodd"
         id="path20" />
      <path
         d="M 9.43744,3.42389 C 9.11753,3.40329 8.94725,3.37755 8.94725,2.98109 c 0,-0.27288 0.04643,-0.41704 0.7069,-0.41704 0.47985,0 0.67075,0 0.67075,0.50972 h 1.161 V 2.86782 c 0,-1.36956 -0.8411,-1.39016 -1.8369,-1.39016 -1.18677,0 -1.92463,0.09268 -1.92463,1.51373 0,1.41076 0.66046,1.41076 1.78015,1.49314 l 0.26314,0.02059 c 0.56764,0.04634 0.63984,0.03604 0.63984,0.46339 0,0.41705 -0.1806,0.45309 -0.75335,0.45309 C 9.06076,5.4216 8.8905,5.37526 8.8905,4.85524 H 7.72953 c 0,1.627 0.76365,1.64759 1.92462,1.64759 1.99685,0 1.96075,-0.8032 1.96075,-1.6167 0,-1.14302 -0.3302,-1.32323 -1.67695,-1.4365 z"
         fill="#ffffff"
         fill-rule="evenodd"
         clip-rule="evenodd"
         id="path21" />
      <path
         d="m 14.4424,2.66707 h 1.2229 V 1.52405 h -3.6016 v 1.14302 h 1.161 v 3.81007 h 1.2177 z"
         fill="#ffffff"
         fill-rule="evenodd"
         clip-rule="evenodd"
         id="path22" />
      <path
         d="m 17.4661,1.52405 h -1.2074 v 4.94794 h 1.2074 z"
         fill="#ffffff"
         id="path23" />
      <path
         d="m 20.4434,2.66707 h 1.2281 V 1.52405 h -3.6016 v 1.14302 h 1.161 v 3.81007 h 1.2125 z"
         fill="#ffffff"
         fill-rule="evenodd"
         clip-rule="evenodd"
         id="path24" />
      <path
         d="m 24.9686,1.52405 v 3.21281 c 0,0.57666 -0.1703,0.6333 -0.6863,0.6333 -0.5159,0 -0.7997,-0.0103 -0.7997,-0.57666 V 1.52405 h -1.2178 v 3.30034 c 0,1.18421 0.1961,1.68364 2.0175,1.68364 1.3313,0 1.904,-0.37071 1.904,-1.68364 V 1.52405 Z"
         fill="#ffffff"
         fill-rule="evenodd"
         clip-rule="evenodd"
         id="path25" />
      <path
         d="m 29.1636,2.66707 h 1.2177 V 1.52405 h -3.6016 v 1.14302 h 1.161 v 3.81007 h 1.2229 z"
         fill="#ffffff"
         fill-rule="evenodd"
         clip-rule="evenodd"
         id="path26" />
      <path
         d="m 110.757,22.1963 -1.486,0.8598 -2.549,1.4932 0.557,1.2099 1.992,-0.623 2.466,-0.7671 z"
         fill="#ffffff"
         fill-rule="evenodd"
         clip-rule="evenodd"
         id="path27" />
      <path
         d="m 112.191,26.7168 h -2.92 -3.091 l -4.433,14.6688 h 4.103 l 0.727,-2.5178 h 2.688 2.622 l 0.774,2.5178 h 4.024 z m -2.92,9.2935 h -1.837 l 1.79,-6.3536 h 0.047 l 1.836,6.3536 z"
         fill="#ffffff"
         fill-rule="evenodd"
         clip-rule="evenodd"
         id="path28" />
      <path
         d="m 96.3812,26.7168 v 9.5149 c 0,1.7299 -0.5676,1.8638 -2.2446,1.8638 -1.6511,0 -2.6108,-0.0206 -2.6108,-1.6836 v -9.6951 h -3.9422 v 9.7775 c 0,3.5268 0.6295,5.02 6.553,5.02 4.3446,0 6.2024,-1.107 6.2024,-5.02 v -9.7775 z"
         fill="#ffffff"
         fill-rule="evenodd"
         clip-rule="evenodd"
         id="path29" />
      <path
         d="m 81.6394,26.7168 h -2.9205 -3.0753 l -4.4478,14.6688 h 4.1176 l 0.7275,-2.5178 h 2.678 2.6212 l 0.774,2.5178 h 4.0247 z m -2.9205,9.2935 H 76.882 l 1.806,-6.3536 h 0.0361 l 1.8369,6.3536 z"
         fill="#ffffff"
         fill-rule="evenodd"
         clip-rule="evenodd"
         id="path30" />
      <path
         d="m 55.0661,30.1407 h 0.1238 l 3.7822,11.2449 h 3.4107 L 66.134,30.1407 h 0.1342 l -0.3973,11.2449 h 3.9576 V 26.7168 h -6.4189 l -2.6935,9.2111 H 60.582 l -2.807,-9.2111 h -6.2589 v 14.6688 h 3.9473 z"
         fill="#ffffff"
         fill-rule="evenodd"
         clip-rule="evenodd"
         id="path31" />
      <path
         d="M 117,48.4497 H 50.3655 v 5.5504 H 117 Z"
         fill="#ffffff"
         id="path32" />
      <path
         d="M 117,13.6648 H 50.3655 v 5.5503 H 117 Z"
         fill="#ffffff"
         id="path33" />
      <path
         d="M 20.3505,19.8586 H 6.2486 V 47.806 H 20.3505 34.4524 V 19.8586 Z m 0,27.7672 c -7.6727,0 -13.92131,-6.2042 -13.92131,-13.7986 0,-7.5944 6.24861,-13.7884 13.92131,-13.7884 7.6624,0 13.9213,6.194 13.9213,13.7884 0,7.5944 -6.2589,13.7986 -13.9213,13.7986 z"
         fill="#ffffff"
         fill-rule="evenodd"
         clip-rule="evenodd"
         id="path34" />
      <path
         d="M 20.3505,13.6648 H 0 V 54 H 20.3505 40.701 V 13.6648 Z m 0,40.0623 c -11.05758,0 -20.087347,-8.9382 -20.087347,-19.8998 0,-10.9514 9.029767,-19.9051 20.087347,-19.9051 11.0576,0 20.0771,8.9537 20.0771,19.9051 0,10.9616 -9.0195,19.8998 -20.0771,19.8998 z"
         fill="#ffffff"
         fill-rule="evenodd"
         clip-rule="evenodd"
         id="path35" />
    </g>
  </g>
</svg>
