<?xml version="1.0" encoding="UTF-8" standalone="no"?>
<!-- Created with Inkscape (http://www.inkscape.org/) -->

<svg
   width="210mm"
   height="297mm"
   viewBox="0 0 210 297"
   version="1.1"
   id="svg1"
   inkscape:version="1.4.3 (0d15f75, 2025-12-25)"
   sodipodi:docname="nsee.svg"
   xmlns:inkscape="http://www.inkscape.org/namespaces/inkscape"
   xmlns:sodipodi="http://sodipodi.sourceforge.net/DTD/sodipodi-0.dtd"
   xmlns="http://www.w3.org/2000/svg"
   xmlns:svg="http://www.w3.org/2000/svg">
  <sodipodi:namedview
     id="namedview1"
     pagecolor="#505050"
     bordercolor="#ffffff"
     borderopacity="1"
     inkscape:showpageshadow="0"
     inkscape:pageopacity="0"
     inkscape:pagecheckerboard="1"
     inkscape:deskcolor="#505050"
     inkscape:document-units="mm"
     showguides="false"
     inkscape:zoom="0.78840488"
     inkscape:cx="397.00414"
     inkscape:cy="561.25984"
     inkscape:window-width="1920"
     inkscape:window-height="1166"
     inkscape:window-x="-11"
     inkscape:window-y="-11"
     inkscape:window-maximized="1"
     inkscape:current-layer="layer1" />
  <defs
     id="defs1" />
  <g
     inkscape:label="Camada 1"
     inkscape:groupmode="layer"
     id="layer1">
    <path
       d="m 178.01361,118.91857 c -0.71861,0.44135 -1.50627,0.69998 -2.30372,0.78423 -0.35402,2.12023 -1.70974,4.55437 -3.92801,7.19558 h 2.82522 c 0.15161,-0.20273 0.29845,-0.40458 0.44053,-0.6055 1.67852,-2.37432 2.8747,-4.91273 2.96598,-7.37431 z"
       fill="#ffffff"
       id="path1"
       style="stroke-width:0.264583" />
    <path
       d="m 170.85346,110.68365 c -0.80989,-0.23894 -1.65735,-0.42844 -2.52519,-0.57597 -4.23068,-0.71925 -9.70623,-0.58687 -15.97818,0.25382 -12.57724,1.68584 -28.87398,6.29311 -45.95072,13.38267 -17.077,7.08959 -31.844932,15.37909 -41.918043,23.09673 -5.023246,3.84863 -8.982604,7.63323 -11.459897,11.13737 -2.401277,3.39645 -3.815342,7.12893 -2.419258,10.49178 1.396085,3.36259 5.037839,4.99613 9.138669,5.69331 4.230608,0.71914 9.706239,0.58684 15.97824,-0.25374 12.577229,-1.68592 28.873979,-6.29311 45.950719,-13.38289 2.51936,-1.04589 4.98845,-2.11772 7.3996,-3.21019 h -5.48323 c -0.91413,0.39212 -1.83594,0.78132 -2.76463,1.16682 -33.90423,14.07557 -64.427573,18.16682 -68.175885,9.13818 -3.74832,-9.02865 20.697812,-27.75824 54.601965,-41.83388 26.83881,-11.14232 51.55909,-16.02807 62.55597,-13.1018 0.20479,-0.72149 0.55721,-1.40528 1.04987,-2.00221 z"
       fill="#ffffff"
       id="path2"
       style="stroke-width:0.264583" />
    <circle
       cx="-60.744686"
       cy="-200.05074"
       r="3.3188803"
       fill="#ffffff"
       transform="rotate(139.99997)"
       id="circle2"
       style="stroke-width:0.264583" />
    <rect
       x="-67.382355"
       y="-201.15709"
       width="13.275521"
       height="2.2125885"
       fill="#ffffff"
       transform="rotate(139.99997)"
       id="rect2"
       style="stroke-width:0.264583" />
    <path
       d="m 150.62183,153.99364 v -23.75077 h 24.0448 v 5.06484 h -17.45879 v 3.92377 h 16.55974 v 5.06465 h -16.55974 v 4.63286 h 17.70062 v 5.06465 z"
       fill="#ffffff"
       id="path3"
       style="stroke-width:0.264583" />
    <path
       d="m 120.12966,153.99364 v -23.75077 h 24.0448 v 5.06484 h -17.45879 v 3.92377 h 16.55974 v 5.06465 h -16.55974 v 4.63286 h 17.70062 v 5.06465 z"
       fill="#ffffff"
       id="path4"
       style="stroke-width:0.264583" />
    <path
       d="m 88.91173,136.79652 c -2.6e-4,0.0222 -2.6e-4,0.0445 -2.6e-4,0.0667 0,0.88741 0.17277,1.67111 0.51858,2.35109 0.34581,0.66833 0.8181,1.26179 1.41738,1.78038 0.59928,0.50694 1.29645,0.95065 2.09153,1.33085 0.79534,0.36883 1.63645,0.69744 2.52386,0.98531 0.89879,0.27675 1.82086,0.51858 2.76569,0.72602 0.94509,0.20743 1.86108,0.40349 2.74849,0.5879 0.89879,0.17277 1.74598,0.35137 2.54106,0.53578 0.79507,0.17278 1.49225,0.36883 2.09153,0.58764 0.59928,0.20744 1.07183,0.45535 1.41737,0.74348 0.34581,0.27649 0.51859,0.60484 0.51859,0.98531 0,0.24183 -0.0863,0.4953 -0.2593,0.76041 -0.17277,0.26511 -0.50112,0.51276 -0.9853,0.74322 -0.48393,0.21907 -1.15809,0.40349 -2.02248,0.55324 -0.85275,0.13838 -1.95897,0.20743 -3.31867,0.20743 -2.30478,0 -4.47146,-0.24765 -6.49949,-0.74321 -2.01665,-0.49557 -3.8145,-1.18137 -5.39326,-2.05714 v 5.66975 c 1.53273,0.57627 3.29591,1.05437 5.28955,1.43484 2.00501,0.39185 4.18306,0.58764 6.53388,0.58764 0.89905,0 1.84388,-0.0288 2.83501,-0.0865 1.00251,-0.0574 1.98782,-0.17859 2.95593,-0.36301 0.97948,-0.18415 1.91293,-0.44344 2.80035,-0.77761 0.88714,-0.34581 1.66502,-0.80116 2.33336,-1.36578 0.67998,-0.56462 1.22158,-1.25598 1.62507,-2.07433 0.40322,-0.81809 0.60483,-1.79758 0.60483,-2.93846 0,-0.88742 -0.17277,-1.67667 -0.51858,-2.36829 -0.34554,-0.69136 -0.81809,-1.30201 -1.41737,-1.83224 -0.59928,-0.52996 -1.29646,-0.99113 -2.09153,-1.38271 -0.79508,-0.40349 -1.64227,-0.75486 -2.54106,-1.05463 -0.88741,-0.29951 -1.80922,-0.5588 -2.76569,-0.77788 -0.94509,-0.23045 -1.8669,-0.43788 -2.76569,-0.6223 -0.88741,-0.19579 -1.72879,-0.3802 -2.52386,-0.55298 -0.79507,-0.18441 -1.49225,-0.37465 -2.09153,-0.57044 -0.59928,-0.20743 -1.07183,-0.43788 -1.41737,-0.69162 -0.34582,-0.26485 -0.51859,-0.57044 -0.51859,-0.91599 0,-0.10371 0.0172,-0.21907 0.0519,-0.34581 0.046,-0.12673 0.13811,-0.25347 0.27649,-0.3802 0.13838,-0.12674 0.33417,-0.24792 0.58764,-0.36301 0.26511,-0.12674 0.61648,-0.23627 1.05463,-0.32835 0.44926,-0.0923 0.99669,-0.16722 1.642,-0.22489 0.65696,-0.0574 1.44622,-0.0863 2.36829,-0.0863 1.15226,0 2.27595,0.0863 3.37053,0.25929 1.09484,0.16113 2.10899,0.36856 3.04244,0.6223 0.93345,0.24183 1.769,0.50112 2.5064,0.77787 0.73766,0.27649 1.33112,0.52414 1.78038,0.74322 v -5.49696 c -0.74904,-0.24199 -1.56713,-0.47247 -2.45454,-0.69144 -0.87577,-0.21894 -1.7862,-0.40909 -2.73103,-0.57041 -0.94509,-0.17285 -1.90738,-0.30538 -2.88687,-0.39759 -0.12885,-0.0122 -0.25717,-0.0237 -0.38523,-0.0343 -5.1898,2.27401 -10.11608,4.64492 -14.70501,7.05474 z"
       fill="#ffffff"
       id="path5"
       style="stroke-width:0.264583" />
    <path
       d="m 82.75779,132.56274 v -2.3199 h -6.378547 v 5.96048 c 2.041499,-1.21867 4.170337,-2.43432 6.378547,-3.64058 z"
       fill="#ffffff"
       id="path6"
       style="stroke-width:0.264583" />
    <path
       d="m 74.790288,145.00654 1.588955,1.62322 v -2.63948 c 2.017422,-1.27292 4.147057,-2.55059 6.378547,-3.82509 v 13.82845 h -6.948962 l -5.701903,-5.80654 c 1.475687,-1.05172 3.038898,-2.1135 4.683363,-3.18056 z"
       fill="#ffffff"
       id="path7"
       style="stroke-width:0.264583" />
    <path
       d="m 70.057659,140.17207 -9.71968,-9.92923 h -6.966188 v 23.73122 c 1.778741,-2.04073 3.943694,-4.11824 6.41305,-6.20051 v -10.09782 l 5.616601,5.7195 c 1.472116,-1.06865 3.026146,-2.14472 4.656217,-3.22316 z"
       fill="#ffffff"
       id="path8"
       style="stroke-width:0.264583" />
  </g>
</svg>
